# Blender v2.91.0 OBJ File: 'BlenderNatureAsset.blend'
# www.blender.org
mtllib Tree.mtl
o SapinHiver.015_Cylinder.034
v 0.000312 0.791130 -0.738537
v -0.128680 4.699447 -0.031855
v 0.493224 0.905771 -0.501872
v -0.121327 4.699762 -0.029139
v 0.772098 0.827138 -0.024209
v -0.118048 4.699943 -0.022014
v 0.531099 0.913924 0.472281
v -0.120764 4.699883 -0.014655
v 0.058123 0.803574 0.748382
v -0.127884 4.699618 -0.011371
v -0.442294 0.874896 0.510452
v -0.135237 4.699303 -0.014087
v -0.713662 0.767566 0.034055
v -0.138516 4.699122 -0.021211
v -0.480169 0.866743 -0.463700
v -0.135800 4.699182 -0.028571
v -0.020944 1.426936 -0.630511
v -0.042201 2.062743 -0.522484
v -0.063457 2.698550 -0.414458
v -0.084714 3.334357 -0.306431
v -0.105971 3.970163 -0.198404
v 0.011688 4.068439 -0.141029
v 0.107995 3.435906 -0.213197
v 0.204302 2.803372 -0.285366
v 0.300610 2.170839 -0.357534
v 0.396917 1.538305 -0.429703
v 0.082695 3.978966 -0.023785
v 0.220576 3.348600 -0.023870
v 0.358456 2.718235 -0.023955
v 0.496337 2.087869 -0.024040
v 0.634217 1.457503 -0.024125
v 0.020946 4.070433 0.097106
v 0.122977 3.439131 0.172141
v 0.225007 2.807829 0.247176
v 0.327038 2.176528 0.322211
v 0.429068 1.545226 0.397246
v -0.091839 3.973206 0.165078
v -0.061846 3.339279 0.281739
v -0.031854 2.705353 0.398400
v -0.001862 2.071427 0.515061
v 0.028131 1.437500 0.631721
v -0.217003 4.060892 0.106437
v -0.262061 3.423693 0.187240
v -0.307119 2.786494 0.268043
v -0.352178 2.149294 0.348846
v -0.397236 1.512095 0.429649
v -0.280504 3.964403 -0.009542
v -0.367136 3.325036 -0.000823
v -0.453767 2.685668 0.007897
v -0.540399 2.046301 0.016616
v -0.627031 1.406933 0.025335
v -0.226261 4.058899 -0.131697
v -0.277043 3.420468 -0.198098
v -0.327824 2.782037 -0.264498
v -0.378606 2.143605 -0.330899
v -0.429387 1.505174 -0.397300
v -0.107685 3.939515 -0.273472
v 0.060258 4.039985 -0.192071
v 0.159119 3.951963 -0.026530
v 0.073351 4.042803 0.144692
v -0.087700 3.943817 0.240553
v -0.263149 4.029311 0.157888
v -0.354505 3.931369 -0.006388
v -0.276242 4.026493 -0.178875
v -0.088412 3.303282 -0.432514
v 0.188662 3.408510 -0.298972
v 0.347975 3.323642 -0.028614
v 0.210077 3.413120 0.251840
v -0.055725 3.310318 0.408229
v -0.340305 3.391053 0.273423
v -0.492112 3.289958 0.004330
v -0.361720 3.386443 -0.277388
v -0.068693 2.667144 -0.580067
v 0.309838 2.776797 -0.398051
v 0.525352 2.694860 -0.030248
v 0.338990 2.783073 0.351756
v -0.024196 2.676723 0.564417
v -0.410232 2.753033 0.381136
v -0.618240 2.649007 0.014598
v -0.439384 2.746757 -0.368670
v -0.049274 2.030941 -0.735366
v 0.435888 2.145245 -0.502404
v 0.710468 2.066388 -0.032185
v 0.473171 2.153271 0.456548
v 0.007635 2.043192 0.728351
v -0.485033 2.114852 0.494124
v -0.752108 2.007746 0.025170
v -0.522316 2.106826 -0.464828
v -0.029921 1.394725 -0.892346
v 0.562994 1.513728 -0.607901
v 0.897264 1.437984 -0.034188
v 0.608495 1.523523 0.562397
v 0.039530 1.409675 0.893965
v -0.560891 1.476636 0.608255
v -0.887654 1.366417 0.035807
v -0.606391 1.466841 -0.562043
v 0.681017 0.881911 -0.703567
v 1.069631 0.809001 -0.035626
v 0.733999 0.893316 0.659158
v 0.070864 0.776038 1.045140
v -0.627664 0.838720 0.712556
v -1.008773 0.725667 0.045879
v -0.680646 0.827315 -0.650169
v -0.010006 0.758630 -1.034886
v 0.065003 -0.305848 -0.210508
v 0.014073 0.955975 -0.219089
v 0.225046 -0.298986 -0.151393
v 0.174117 0.962837 -0.159973
v 0.296416 -0.295051 0.003677
v 0.245486 0.966772 -0.004904
v 0.237303 -0.296348 0.163863
v 0.186374 0.965475 0.155283
v 0.082337 -0.302117 0.235332
v 0.031407 0.959707 0.226751
v -0.077707 -0.308978 0.176216
v -0.128637 0.952845 0.167636
v -0.149076 -0.312913 0.021147
v -0.200006 0.948910 0.012566
v -0.089964 -0.311617 -0.139040
v -0.140894 0.950207 -0.147620
vt 0.913570 0.545913
vt 0.913570 0.277098
vt 0.879991 0.277098
vt 0.879991 0.545913
vt 0.913570 0.277098
vt 0.913570 0.545913
vt 0.947149 0.277098
vt 0.947149 0.545913
vt 0.392027 0.730793
vt 0.392027 0.999608
vt 0.358448 0.999608
vt 0.358448 0.730793
vt 0.324869 0.999608
vt 0.324869 0.730793
vt 0.358448 0.999608
vt 0.358448 0.730793
vt 0.706011 0.818269
vt 0.742356 0.818269
vt 0.768057 0.843970
vt 0.768057 0.880315
vt 0.742356 0.906015
vt 0.706011 0.906015
vt 0.680311 0.880315
vt 0.680311 0.843970
vt 0.947149 0.545913
vt 0.947149 0.277098
vt 0.392027 0.999608
vt 0.392027 0.730793
vt 0.062438 0.891307
vt 0.026093 0.891307
vt 0.000393 0.917007
vt 0.000393 0.953353
vt 0.026093 0.979053
vt 0.062438 0.979053
vt 0.088139 0.953353
vt 0.088139 0.917007
vt 0.538479 0.784708
vt 0.576506 0.941619
vt 0.578005 0.941255
vt 0.578005 0.795511
vt 0.576506 0.941619
vt 0.538479 0.784708
vt 0.575006 0.941982
vt 0.508284 0.812407
vt 0.679526 0.829072
vt 0.679526 0.974817
vt 0.678026 0.975180
vt 0.640000 0.818269
vt 0.676527 0.975544
vt 0.609804 0.845969
vt 0.678026 0.975180
vt 0.640000 0.818269
vt 0.508284 0.812407
vt 0.575006 0.941982
vt 0.679526 0.974817
vt 0.679526 0.829072
vt 0.056295 0.270212
vt 0.152955 0.336589
vt 0.270212 0.336589
vt 0.336589 0.239929
vt 0.336589 0.122672
vt 0.239929 0.056295
vt 0.122672 0.056295
vt 0.056295 0.152955
vt 0.337909 0.396127
vt 0.337909 0.394457
vt 0.339090 0.393276
vt 0.340760 0.393276
vt 0.341941 0.394457
vt 0.341941 0.396127
vt 0.340760 0.397308
vt 0.339090 0.397308
vt 0.554730 0.422246
vt 0.413085 0.422246
vt 0.393276 0.510327
vt 0.534921 0.567395
vt 0.771258 0.692832
vt 0.629613 0.692832
vt 0.609804 0.765234
vt 0.751449 0.817484
vt 0.879206 0.379239
vt 0.737561 0.379239
vt 0.717753 0.435962
vt 0.859398 0.481380
vt 0.161846 0.810657
vt 0.020201 0.810657
vt 0.000393 0.851701
vt 0.142037 0.890522
vt 0.884798 0.163365
vt 0.917218 0.025481
vt 0.897060 0.000393
vt 0.832220 0.130654
vt 0.413085 0.422246
vt 0.554730 0.422246
vt 0.629613 0.692832
vt 0.771258 0.692832
vt 0.737561 0.379239
vt 0.879206 0.379239
vt 0.020201 0.810657
vt 0.161846 0.810657
vt 0.917218 0.025481
vt 0.884798 0.163365
vt 0.393276 0.334165
vt 0.534921 0.277098
vt 0.609804 0.620430
vt 0.751449 0.568180
vt 0.717753 0.322516
vt 0.859398 0.277098
vt 0.000393 0.769614
vt 0.142037 0.730793
vt 0.946443 0.012004
vt 0.946443 0.157511
vt 0.697159 0.567395
vt 0.555515 0.510327
vt 0.575323 0.422246
vt 0.716968 0.422246
vt 0.811627 0.249697
vt 0.669982 0.197447
vt 0.689790 0.125045
vt 0.831435 0.125045
vt 0.913687 0.772462
vt 0.772043 0.727044
vt 0.791851 0.670321
vt 0.933496 0.670321
vt 0.182439 0.730793
vt 0.324084 0.769614
vt 0.304275 0.810657
vt 0.162631 0.810657
vt 0.507499 0.790562
vt 0.507499 0.936069
vt 0.478274 0.922592
vt 0.445854 0.784708
vt 0.555515 0.334165
vt 0.697159 0.277098
vt 0.669982 0.052643
vt 0.811627 0.000393
vt 0.772043 0.613598
vt 0.913687 0.568180
vt 0.324084 0.851701
vt 0.182439 0.890522
vt 0.458117 0.947680
vt 0.393276 0.817419
vt 0.575323 0.422246
vt 0.716968 0.422246
vt 0.689790 0.125045
vt 0.831435 0.125045
vt 0.791851 0.670321
vt 0.933496 0.670321
vt 0.304275 0.810657
vt 0.162631 0.810657
vt 0.478274 0.922592
vt 0.445854 0.784708
vt 0.534921 0.277098
vt 0.393276 0.334165
vt 0.751449 0.568180
vt 0.609804 0.620430
vt 0.859398 0.277098
vt 0.717753 0.322516
vt 0.142037 0.730793
vt 0.000393 0.769614
vt 0.946443 0.157511
vt 0.946443 0.012004
vt 0.555515 0.510327
vt 0.697159 0.567395
vt 0.669982 0.197447
vt 0.811627 0.249697
vt 0.772043 0.727044
vt 0.913687 0.772462
vt 0.324084 0.769614
vt 0.182439 0.730793
vt 0.507499 0.936069
vt 0.507499 0.790562
vt 0.898702 0.246858
vt 0.906171 0.261047
vt 0.929117 0.227632
vt 0.914928 0.223229
vt 0.929117 0.187097
vt 0.914928 0.194566
vt 0.895702 0.164150
vt 0.891299 0.178339
vt 0.855167 0.164150
vt 0.862636 0.178339
vt 0.832220 0.197565
vt 0.846409 0.201968
vt 0.832220 0.238101
vt 0.846409 0.230632
vt 0.870038 0.246858
vt 0.865635 0.261047
vt 0.795848 0.881670
vt 0.772043 0.894201
vt 0.826697 0.931733
vt 0.834084 0.907927
vt 0.892997 0.931733
vt 0.880466 0.907927
vt 0.930528 0.877078
vt 0.906722 0.869692
vt 0.930528 0.810778
vt 0.906722 0.823309
vt 0.875874 0.773247
vt 0.868487 0.797053
vt 0.809574 0.773247
vt 0.822105 0.797053
vt 0.795848 0.835288
vt 0.772043 0.827901
vt 0.424533 0.716379
vt 0.393276 0.732832
vt 0.467676 0.783923
vt 0.477375 0.752666
vt 0.557929 0.783923
vt 0.541476 0.752666
vt 0.609019 0.709523
vt 0.577762 0.699824
vt 0.609019 0.619271
vt 0.577762 0.635723
vt 0.534620 0.568180
vt 0.524921 0.599437
vt 0.444367 0.568180
vt 0.460820 0.599437
vt 0.424533 0.652278
vt 0.393276 0.642579
vt 0.629029 0.086878
vt 0.669197 0.065734
vt 0.574045 0.000393
vt 0.561581 0.040561
vt 0.458618 0.000393
vt 0.479762 0.040561
vt 0.393276 0.095544
vt 0.433445 0.108008
vt 0.393276 0.210971
vt 0.433445 0.189828
vt 0.488428 0.276313
vt 0.500892 0.236145
vt 0.603855 0.276313
vt 0.582712 0.236145
vt 0.629029 0.168697
vt 0.669197 0.181161
vt 0.106136 0.680612
vt 0.080135 0.730008
vt 0.221001 0.730008
vt 0.205674 0.680612
vt 0.337124 0.650265
vt 0.287728 0.624265
vt 0.337124 0.509399
vt 0.287728 0.524726
vt 0.257381 0.393276
vt 0.231381 0.442673
vt 0.116515 0.393276
vt 0.131843 0.442673
vt 0.000393 0.473019
vt 0.049789 0.499020
vt 0.049789 0.598558
vt 0.000393 0.613885
vt 0.000393 0.299637
vt 0.135609 0.392491
vt 0.299637 0.392491
vt 0.392491 0.257275
vt 0.392491 0.093247
vt 0.257275 0.000393
vt 0.093247 0.000393
vt 0.000393 0.135609
vn 0.3462 0.0076 -0.9381
vn 0.9076 0.0338 -0.4186
vn 0.9373 0.0402 0.3462
vn 0.4180 0.0230 0.9082
vn -0.3462 -0.0076 0.9381
vn -0.9076 -0.0338 0.4186
vn -0.0403 0.9992 -0.0068
vn -0.4180 -0.0230 -0.9082
vn -0.9373 -0.0402 -0.3462
vn 0.0403 -0.9992 0.0068
vn 0.2675 0.2992 -0.9159
vn 0.8768 0.3276 -0.3520
vn 0.9013 0.3329 0.2774
vn 0.3376 0.3143 0.8873
vn -0.2913 0.2890 0.9119
vn -0.9005 0.2606 0.3480
vn -0.3614 0.2740 -0.8913
vn -0.9250 0.2554 -0.2814
vn 0.2921 0.4866 -0.8233
vn 0.2936 0.4545 -0.8410
vn 0.2975 0.4058 -0.8642
vn 0.2960 0.3551 -0.8867
vn 0.2799 0.3096 -0.9087
vn 0.7733 0.5091 -0.3780
vn 0.7924 0.4777 -0.3793
vn 0.8176 0.4301 -0.3827
vn 0.8427 0.3807 -0.3807
vn 0.8682 0.3370 -0.3643
vn 0.8000 0.5148 0.3082
vn 0.8191 0.4835 0.3086
vn 0.8446 0.4359 0.3109
vn 0.8695 0.3864 0.3077
vn 0.8936 0.3425 0.2901
vn 0.3549 0.5001 0.7899
vn 0.3577 0.4683 0.8079
vn 0.3634 0.4200 0.8316
vn 0.3637 0.3697 0.8550
vn 0.3494 0.3245 0.8790
vn -0.3308 0.4726 0.8168
vn -0.3297 0.4407 0.8349
vn -0.3297 0.3922 0.8588
vn -0.3241 0.3421 0.8820
vn -0.3045 0.2983 0.9046
vn -0.8120 0.4502 0.3715
vn -0.8285 0.4174 0.3732
vn -0.8499 0.3679 0.3773
vn -0.8709 0.3166 0.3759
vn -0.8927 0.2709 0.3602
vn -0.3936 0.4591 -0.7964
vn -0.3938 0.4269 -0.8140
vn -0.3956 0.3780 -0.8370
vn -0.3918 0.3276 -0.8598
vn -0.3740 0.2833 -0.8831
vn -0.8387 0.4444 -0.3148
vn -0.8553 0.4117 -0.3147
vn -0.8768 0.3621 -0.3163
vn -0.8976 0.3109 -0.3124
vn -0.9181 0.2654 -0.2942
vn 0.3199 -0.8067 0.4969
vn -0.4787 -0.8439 -0.2422
vn -0.4579 -0.8395 0.2927
vn 0.2809 -0.8151 -0.5067
vn -0.2536 -0.8365 -0.4857
vn 0.5450 -0.7993 0.2534
vn -0.2146 -0.8281 0.5179
vn 0.5242 -0.8037 -0.2815
vn 0.2378 -0.9107 0.3377
vn -0.3087 -0.9362 -0.1681
vn -0.2941 -0.9331 0.2071
vn 0.2115 -0.9164 -0.3399
vn -0.1635 -0.9314 -0.3252
vn 0.3830 -0.9059 0.1806
vn -0.1371 -0.9257 0.3524
vn 0.3684 -0.9090 -0.1946
vn 0.1867 -0.9462 0.2644
vn -0.2300 -0.9656 -0.1213
vn -0.2193 -0.9633 0.1549
vn 0.1662 -0.9506 -0.2623
vn -0.1097 -0.9616 -0.2514
vn 0.3070 -0.9422 0.1342
vn -0.0892 -0.9572 0.2752
vn 0.2963 -0.9445 -0.1419
vn 0.1576 -0.9646 0.2112
vn -0.1739 -0.9801 -0.0956
vn -0.1653 -0.9783 0.1252
vn 0.1413 -0.9681 -0.2067
vn -0.0792 -0.9770 -0.1980
vn 0.2523 -0.9615 0.1088
vn -0.0630 -0.9735 0.2199
vn 0.2437 -0.9634 -0.1120
vn 0.1381 -0.9748 0.1751
vn -0.1359 -0.9876 -0.0785
vn -0.1288 -0.9861 0.1053
vn 0.1247 -0.9777 -0.1690
vn -0.0590 -0.9851 -0.1618
vn 0.2150 -0.9723 0.0919
vn -0.0456 -0.9822 0.1823
vn 0.2079 -0.9738 -0.0920
vn 0.1228 -0.9803 0.1547
vn -0.1142 -0.9914 -0.0646
vn -0.1082 -0.9901 0.0898
vn 0.1110 -0.9828 -0.1474
vn -0.0433 -0.9890 -0.1413
vn 0.1936 -0.9780 0.0780
vn -0.0316 -0.9865 0.1607
vn 0.1876 -0.9793 -0.0765
usemtl Material.008
s off
f 105/1/1 106/2/1 108/3/1 107/4/1
f 107/4/2 108/3/2 110/5/2 109/6/2
f 109/6/3 110/5/3 112/7/3 111/8/3
f 111/9/4 112/10/4 114/11/4 113/12/4
f 113/12/5 114/11/5 116/13/5 115/14/5
f 115/14/6 116/13/6 118/15/6 117/16/6
f 108/17/7 106/18/7 120/19/7 118/20/7 116/21/7 114/22/7 112/23/7 110/24/7
f 119/25/8 120/26/8 106/2/8 105/1/8
f 117/16/9 118/15/9 120/27/9 119/28/9
f 105/29/10 107/30/10 109/31/10 111/32/10 113/33/10 115/34/10 117/35/10 119/36/10
usemtl Material.009
f 57/37/11 2/38/11 4/39/11 58/40/11
f 58/40/12 4/39/12 6/41/12 59/42/12
f 59/42/13 6/41/13 8/43/13 60/44/13
f 60/45/14 8/46/14 10/47/14 61/48/14
f 61/48/15 10/47/15 12/49/15 62/50/15
f 62/50/16 12/49/16 14/51/16 63/52/16
f 64/53/17 16/54/17 2/38/17 57/37/17
f 63/52/18 14/51/18 16/55/18 64/56/18
f 1/57/10 3/58/10 5/59/10 7/60/10 9/61/10 11/62/10 13/63/10 15/64/10
f 4/65/7 2/66/7 16/67/7 14/68/7 12/69/7 10/70/7 8/71/7 6/72/7
f 104/73/19 17/74/19 26/75/19 97/76/19
f 89/77/20 18/78/20 25/79/20 90/80/20
f 81/81/21 19/82/21 24/83/21 82/84/21
f 73/85/22 20/86/22 23/87/22 74/88/22
f 65/89/23 21/90/23 22/91/23 66/92/23
f 97/76/24 26/75/24 31/93/24 98/94/24
f 90/80/25 25/79/25 30/95/25 91/96/25
f 82/84/26 24/83/26 29/97/26 83/98/26
f 74/88/27 23/87/27 28/99/27 75/100/27
f 66/92/28 22/91/28 27/101/28 67/102/28
f 98/94/29 31/93/29 36/103/29 99/104/29
f 91/96/30 30/95/30 35/105/30 92/106/30
f 83/98/31 29/97/31 34/107/31 84/108/31
f 75/100/32 28/99/32 33/109/32 76/110/32
f 67/102/33 27/101/33 32/111/33 68/112/33
f 99/113/34 36/114/34 41/115/34 100/116/34
f 92/117/35 35/118/35 40/119/35 93/120/35
f 84/121/36 34/122/36 39/123/36 85/124/36
f 76/125/37 33/126/37 38/127/37 77/128/37
f 68/129/38 32/130/38 37/131/38 69/132/38
f 100/116/39 41/115/39 46/133/39 101/134/39
f 93/120/40 40/119/40 45/135/40 94/136/40
f 85/124/41 39/123/41 44/137/41 86/138/41
f 77/128/42 38/127/42 43/139/42 78/140/42
f 69/132/43 37/131/43 42/141/43 70/142/43
f 101/134/44 46/133/44 51/143/44 102/144/44
f 94/136/45 45/135/45 50/145/45 95/146/45
f 86/138/46 44/137/46 49/147/46 87/148/46
f 78/140/47 43/139/47 48/149/47 79/150/47
f 70/142/48 42/141/48 47/151/48 71/152/48
f 103/153/49 56/154/49 17/74/49 104/73/49
f 96/155/50 55/156/50 18/78/50 89/77/50
f 88/157/51 54/158/51 19/82/51 81/81/51
f 80/159/52 53/160/52 20/86/52 73/85/52
f 72/161/53 52/162/53 21/90/53 65/89/53
f 102/144/54 51/143/54 56/163/54 103/164/54
f 95/146/55 50/145/55 55/165/55 96/166/55
f 87/148/56 49/147/56 54/167/56 88/168/56
f 79/150/57 48/149/57 53/169/57 80/170/57
f 71/152/58 47/151/58 52/171/58 72/172/58
f 21/173/59 57/174/59 58/175/59 22/176/59
f 22/176/60 58/175/60 59/177/60 27/178/60
f 27/178/61 59/177/61 60/179/61 32/180/61
f 32/180/62 60/179/62 61/181/62 37/182/62
f 37/182/63 61/181/63 62/183/63 42/184/63
f 42/184/64 62/183/64 63/185/64 47/186/64
f 52/187/65 64/188/65 57/174/65 21/173/65
f 47/186/66 63/185/66 64/188/66 52/187/66
f 20/189/67 65/190/67 66/191/67 23/192/67
f 23/192/68 66/191/68 67/193/68 28/194/68
f 28/194/69 67/193/69 68/195/69 33/196/69
f 33/196/70 68/195/70 69/197/70 38/198/70
f 38/198/71 69/197/71 70/199/71 43/200/71
f 43/200/72 70/199/72 71/201/72 48/202/72
f 53/203/73 72/204/73 65/190/73 20/189/73
f 48/202/74 71/201/74 72/204/74 53/203/74
f 19/205/75 73/206/75 74/207/75 24/208/75
f 24/208/76 74/207/76 75/209/76 29/210/76
f 29/210/77 75/209/77 76/211/77 34/212/77
f 34/212/78 76/211/78 77/213/78 39/214/78
f 39/214/79 77/213/79 78/215/79 44/216/79
f 44/216/80 78/215/80 79/217/80 49/218/80
f 54/219/81 80/220/81 73/206/81 19/205/81
f 49/218/82 79/217/82 80/220/82 54/219/82
f 18/221/83 81/222/83 82/223/83 25/224/83
f 25/224/84 82/223/84 83/225/84 30/226/84
f 30/226/85 83/225/85 84/227/85 35/228/85
f 35/228/86 84/227/86 85/229/86 40/230/86
f 40/230/87 85/229/87 86/231/87 45/232/87
f 45/232/88 86/231/88 87/233/88 50/234/88
f 55/235/89 88/236/89 81/222/89 18/221/89
f 50/234/90 87/233/90 88/236/90 55/235/90
f 17/237/91 89/238/91 90/239/91 26/240/91
f 26/240/92 90/239/92 91/241/92 31/242/92
f 31/242/93 91/241/93 92/243/93 36/244/93
f 36/244/94 92/243/94 93/245/94 41/246/94
f 41/246/95 93/245/95 94/247/95 46/248/95
f 46/248/96 94/247/96 95/249/96 51/250/96
f 56/251/97 96/252/97 89/238/97 17/237/97
f 51/250/98 95/249/98 96/252/98 56/251/98
f 1/57/99 104/253/99 97/254/99 3/58/99
f 3/58/100 97/254/100 98/255/100 5/59/100
f 5/59/101 98/255/101 99/256/101 7/60/101
f 7/60/102 99/256/102 100/257/102 9/61/102
f 9/61/103 100/257/103 101/258/103 11/62/103
f 11/62/104 101/258/104 102/259/104 13/63/104
f 15/64/105 103/260/105 104/253/105 1/57/105
f 13/63/106 102/259/106 103/260/106 15/64/106
